<?xml version="1.0" encoding="utf-8"?>
<!-- Generator: Adobe Illustrator 22.0.1, SVG Export Plug-In . SVG Version: 6.00 Build 0)  -->
<svg version="1.1" id="Layer_1" xmlns="http://www.w3.org/2000/svg" xmlns:xlink="http://www.w3.org/1999/xlink" x="0px" y="0px"
	 viewBox="0 0 253.7 250.3" style="enable-background:new 0 0 253.7 250.3;" xml:space="preserve">
<style type="text/css">
	.st0{fill:#FFFFFF;}
</style>
<g>
	<path class="st0" d="M26.2,102.1c-5.9,0-11,0-16.2,0c-8.9,0-9.1-0.3-7.9-9.9c83.1,0,166.2,0,249.8,0c0.1,1.7,0.2,3.3,0.3,4.9
		c0.3,3.6-1.2,5.2-4.9,5.1c-6.3-0.2-12.6,0-19.6,0c0,2.3,0,4.2,0,6.2c0,33,0,66,0,98.9c0,24.1-16.8,40.9-40.8,41
		c-40,0-79.9,0-119.9,0c-24,0-40.8-16.9-40.8-41c0-33,0-66,0-98.9C26.2,106.4,26.2,104.6,26.2,102.1z M84.1,162.7
		c0,13.3,0,26.7,0,40c0,10.2,5.2,15.4,15.4,15.5c18.3,0,36.7,0,55,0c10.2,0,15.4-5.2,15.5-15.4c0-26.7,0-53.3,0-80
		c0-10.6-5.1-15.7-15.6-15.7c-18.2,0-36.3,0-54.5,0c-10.5,0-15.7,5.1-15.7,15.6C84.1,136,84.1,149.3,84.1,162.7z M1.7,84.2
		c0-2.5,0-4.6,0-6.7c0-4.3,2.2-6.4,6.5-6.4c6.6,0,13.3,0,20.1,0c0.3-1.1,0.7-1.8,0.7-2.6c0-8.1,4.4-13.2,11.3-16.7
		c1.4-0.7,2.7-2.1,3.3-3.5C55.5,22.3,76.5,8.6,103.6,3.6c23.7-4.4,47.2-3,69.4,7.4c15.9,7.5,27.9,19,35.6,35c1.2,2.5,3.3,5,5.7,6.5
		c5.5,3.5,9.8,7.4,9.7,14.6c-0.1,3.3,1.7,4.2,4.8,4c5-0.2,10-0.1,15-0.1c7.2,0,8.5,1.4,8.5,8.4c0,1.5-0.1,2.9-0.2,4.8
		C168.6,84.2,85.4,84.2,1.7,84.2z M126.7,49.1C126.7,49.1,126.7,49.1,126.7,49.1c15,0,29.9,0.1,44.9-0.1c2.3,0,6.5-1.5,6.6-2.6
		c0.2-2.8-0.5-6.6-2.4-8.3c-3.6-3.2-8-6.3-12.6-7.7c-24-7.4-48.2-7.4-72.2,0c-5,1.6-9.6,5.3-13.7,8.7c-1.6,1.3-2.3,5.1-1.6,7.1
		c0.5,1.5,3.9,2.7,6.1,2.7C96.7,49.2,111.7,49.1,126.7,49.1z M146.6,158c0-10.8,0.2-21.3,0-31.7c0-1-1.9-2.8-2.9-2.8
		c-11.1-0.2-22.3-0.2-33.4,0c-1,0-2.8,1.8-2.9,2.8c-0.2,10.5,0,20.9,0,31.7C121,158,133.4,158,146.6,158z"/>
</g>
</svg>
